<svg width="180" height="180" viewBox="0 0 180 180" fill="none" xmlns="http://www.w3.org/2000/svg">
  <style>
    @media (prefers-color-scheme: light) {
      .background { fill: #18181b; }
      .foreground { fill: #ffffff; }
    }
    @media (prefers-color-scheme: dark) {
      .background { fill: #ffffff; }
      .foreground { fill: #18181b; }
    }
  </style>
  <rect class="background" width="180" height="180" rx="37" />
  <!-- Clipboard outline -->
  <rect class="foreground" x="48" y="58" width="84" height="96" rx="8" fill="none" stroke-width="0"/>
  <path class="foreground" d="M48 72C48 64.268 54.268 58 62 58H118C125.732 58 132 64.268 132 72V146C132 153.732 125.732 160 118 160H62C54.268 160 48 153.732 48 146V72Z"/>
  <!-- Clip / top bar -->
  <rect fill="#18181b" x="72" y="50" width="36" height="16" rx="6"/>
  <rect class="background" x="74" y="52" width="32" height="12" rx="4"/>
  <!-- Checkmark line 1 -->
  <path class="background" d="M68 95L80 107L112 75" stroke-width="9" stroke-linecap="round" stroke-linejoin="round" stroke="currentColor" fill="none"/>
  <!-- Line items -->
  <rect class="background" x="68" y="120" width="44" height="7" rx="3.5" opacity="0.5"/>
  <rect class="background" x="68" y="135" width="32" height="7" rx="3.5" opacity="0.5"/>
</svg>